<svg id="Layer_1" data-name="Layer 1" xmlns="http://www.w3.org/2000/svg" viewBox="0 0 312 79"><defs><style>.cls-1{fill:#020000;}.cls-2{fill:#231f20;}</style></defs><title>ben</title><path class="cls-1" d="M76.05,56.49c0,.14-.09.26-.28.34a3.25,3.25,0,0,0-.43.23,1.37,1.37,0,0,0-.42.44,2.65,2.65,0,0,1-.7.68,3.32,3.32,0,0,0-.71.64,2.58,2.58,0,0,1-.44.43c-.19.16-.4.31-.62.47l-.66.43a4.1,4.1,0,0,1-.55.28,1.45,1.45,0,0,0-.45.29,2.88,2.88,0,0,1-.43.33,2,2,0,0,0-.32.25l-.3.28a5.37,5.37,0,0,1-.77.59l-.42.26-.5.31a3.31,3.31,0,0,0-.45.34,1.28,1.28,0,0,0-.29.35c0,.12-.12.25-.18.39a.88.88,0,0,0-.1.41.32.32,0,0,0,.09.25l.22.19a.67.67,0,0,1,.28.36,3.1,3.1,0,0,0,.21.45,1.11,1.11,0,0,0,.36.39,1.29,1.29,0,0,0,.74.16,4.36,4.36,0,0,0,.83-.08c.31-.06.62-.14.93-.23l.91-.31c.31-.11.57-.22.81-.32a7.28,7.28,0,0,1,.77-.31,5.25,5.25,0,0,0,.77-.33l.3-.14.44-.18.44-.18a1.27,1.27,0,0,1,.28-.08c.09,0,.13,0,.13.09a.32.32,0,0,1-.16.23,2.36,2.36,0,0,1-.39.23,4.39,4.39,0,0,1-.44.21l-.31.15c-.65.28-1.28.56-1.9.85s-1.25.54-1.92.78l-.47.14a4.78,4.78,0,0,1-.57.12l-.58.08-.49,0a1.6,1.6,0,0,1-.72-.18,4,4,0,0,0-.69-.3.9.9,0,0,1-.43-.22.67.67,0,0,1-.17-.27,1.12,1.12,0,0,1-.06-.23.13.13,0,0,0-.12-.1.2.2,0,0,0-.17.11.74.74,0,0,0-.1.26l-.06.29c0,.11,0,.18,0,.22a2.1,2.1,0,0,1-.2.9,6.75,6.75,0,0,0-.31.89,1.79,1.79,0,0,1-.17.48l-.23.34a3.76,3.76,0,0,0-.25.31,1,1,0,0,0-.18.37,2.81,2.81,0,0,1-.59,1,8.54,8.54,0,0,0-.71.93,5.06,5.06,0,0,1-.87,1,4.2,4.2,0,0,0-.83,1,4,4,0,0,1-.79.92,8.93,8.93,0,0,0-.87.87,3,3,0,0,1-.87.65,2.43,2.43,0,0,0-.78.56,1.29,1.29,0,0,1-.3.24.7.7,0,0,1-.36.07,2.47,2.47,0,0,1-.44,0,1.65,1.65,0,0,1-.48-.14,1.32,1.32,0,0,1-.38-.25A.54.54,0,0,1,56,76a.59.59,0,0,1,.07-.29.71.71,0,0,0,.06-.31,1.15,1.15,0,0,0,0-.19c0-.06,0-.13,0-.2a1.17,1.17,0,0,1,.18-.64,4.83,4.83,0,0,0,.41-.73,2.37,2.37,0,0,1,.45-.68,3.23,3.23,0,0,0,.53-.81,2.08,2.08,0,0,1,.59-.74,3.49,3.49,0,0,0,.84-.92,10.28,10.28,0,0,1,.73-1c.25-.32.5-.64.76-1a9.83,9.83,0,0,1,.83-.88c.22-.24.43-.47.64-.72a7.12,7.12,0,0,1,.66-.69L63,65.9a5.52,5.52,0,0,0,.38-.43q.18-.23.33-.45a.8.8,0,0,0,.14-.33q0-.09-.06-.09a.48.48,0,0,0-.2.08,2.94,2.94,0,0,1-.31.16l-.34.17a.75.75,0,0,1-.3.08c-.07,0-.11,0-.11-.09a.34.34,0,0,1,.14-.32l.32-.17A7.68,7.68,0,0,0,64,64a4.73,4.73,0,0,1,1-.46,1.24,1.24,0,0,0,.53-.25,3.79,3.79,0,0,0,.35-.48,8.25,8.25,0,0,1,.88-1.07c.42-.43.86-.88,1.34-1.33s1-.88,1.41-1.27a9.12,9.12,0,0,1,1.14-.85,6.88,6.88,0,0,0,1.15-.88,4,4,0,0,1,1.25-.79,7.39,7.39,0,0,0,1-.48,2.09,2.09,0,0,1,1-.3,1.54,1.54,0,0,1,.65.15.51.51,0,0,1,.32.52m-10.94,10a.64.64,0,0,0-.07-.31.27.27,0,0,0-.26-.13.58.58,0,0,0-.3.11,2.6,2.6,0,0,0-.32.26l-.3.29a3.22,3.22,0,0,1-.23.25q-.39.43-.84.87a8.77,8.77,0,0,0-.81.91,11.43,11.43,0,0,0-.66.94,3.69,3.69,0,0,1-.78.85,3.27,3.27,0,0,0-.79,1,5.54,5.54,0,0,1-.73,1c-.11.13-.27.33-.46.59s-.38.55-.55.85a9.38,9.38,0,0,0-.46.88,1.65,1.65,0,0,0-.2.67.4.4,0,0,0,.07.24.28.28,0,0,0,.21.1.67.67,0,0,0,.31-.09l.37-.21a3,3,0,0,0,.34-.26l.26-.22c.36-.26.69-.54,1-.82a10.23,10.23,0,0,0,.92-.94,9.2,9.2,0,0,1,.68-.73,9.19,9.19,0,0,0,.67-.73c.22-.27.49-.65.83-1.11s.65-1,.95-1.47a13.12,13.12,0,0,0,.8-1.52,3.27,3.27,0,0,0,.33-1.28"/><path class="cls-1" d="M88.88,63.94s0,.1-.12.15l-.26.18-.3.16-.22.08-.45.21a4.68,4.68,0,0,1-.45.19,3,3,0,0,0-.69.29,4,4,0,0,1-.66.3l-.93.38a6.09,6.09,0,0,1-.94.31,9.4,9.4,0,0,0-1.17.38,3,3,0,0,1-1.19.24.89.89,0,0,1-.58-.18l-.46-.37a1.84,1.84,0,0,1-.2-.19.35.35,0,0,1-.09-.23s0-.07,0-.12a.52.52,0,0,0,0-.11.15.15,0,0,0-.16-.17.3.3,0,0,0-.13,0,1.73,1.73,0,0,1-.58.16,1.19,1.19,0,0,0-.57.2,2,2,0,0,1-.84.28,4,4,0,0,0-.88.2c-.22.07-.49.15-.81.22a4.21,4.21,0,0,1-.84.11.62.62,0,0,1-.38-.09,1.52,1.52,0,0,0-.33-.19,1.25,1.25,0,0,0-.45-.2.66.66,0,0,1-.39-.36l-.1-.25a1,1,0,0,1,0-.28.57.57,0,0,1,.15-.4l.33-.32a4.55,4.55,0,0,0,.45-.42,2.24,2.24,0,0,1,.46-.4c.29-.19.57-.39.85-.59a6.46,6.46,0,0,1,.87-.56A13.64,13.64,0,0,0,78,61.84a4.32,4.32,0,0,1,1.32-.59,5,5,0,0,0,.78-.3,2.53,2.53,0,0,1,.8-.23c.31,0,.62-.07.92-.09l.91,0a1.86,1.86,0,0,1,.79.14q.27.15.27.72a.93.93,0,0,1-.21.66.59.59,0,0,0-.2.37.45.45,0,0,0,.13.14s0,.09,0,.22a.72.72,0,0,1-.24.55,4.69,4.69,0,0,0-.54.55,2.19,2.19,0,0,1-.59.51l-.28.16a.72.72,0,0,0-.16.28,1.19,1.19,0,0,1-.12.22.41.41,0,0,0-.08.24.54.54,0,0,0,.21.44.69.69,0,0,0,.46.18,3.18,3.18,0,0,0,.91-.11c.23-.07.51-.15.85-.22a3.51,3.51,0,0,0,.79-.27l.78-.35.88-.34c.29-.11.59-.23.88-.36L88,64a1.69,1.69,0,0,1,.68-.21l.13,0a.1.1,0,0,1,.06.1m-5.66-2.18a.54.54,0,0,0-.14-.36.4.4,0,0,0-.33-.15,3,3,0,0,1-.42,0,1.84,1.84,0,0,0-.41,0,1.34,1.34,0,0,0-.76.29,3.34,3.34,0,0,1-.74.42,2.78,2.78,0,0,0-.81.49,2.69,2.69,0,0,1-.8.5,3.61,3.61,0,0,0-.72.45c-.23.19-.45.36-.67.52a1,1,0,0,0-.32.41,1.67,1.67,0,0,1-.28.43l-.08.09a.16.16,0,0,0,0,.09c0,.1.07.18.22.24a1,1,0,0,0,.33.09,1.39,1.39,0,0,0,.68-.16,8,8,0,0,1,.91-.39c.31-.12.61-.25.9-.38a5.85,5.85,0,0,0,1.59-.95l.42-.36a1.36,1.36,0,0,1,.51-.26,1.85,1.85,0,0,0,.62-.36.77.77,0,0,0,.33-.58"/><path class="cls-1" d="M113,64a.36.36,0,0,1-.06.2,3.67,3.67,0,0,1-.45.26c-.26.14-.58.29-1,.46l-1.25.54L109,66l-1.12.44a7.25,7.25,0,0,1-.73.23,3.69,3.69,0,0,0-.79.21,2.36,2.36,0,0,1-.8.14l-.53,0a2.17,2.17,0,0,1-.53-.09.72.72,0,0,1-.28-.16,2.73,2.73,0,0,0-.25-.23.38.38,0,0,1-.18-.34,1.78,1.78,0,0,1,.28-1,5.64,5.64,0,0,1,.61-.76c.22-.22.42-.44.6-.64a.89.89,0,0,0,.28-.63s0,0-.07,0a1.15,1.15,0,0,0-.43.14,4.11,4.11,0,0,0-.4.24,1.54,1.54,0,0,1-.4.13.67.67,0,0,0-.38.2,1.09,1.09,0,0,1-.59.27,1.57,1.57,0,0,0-.62.23,2.42,2.42,0,0,1-.58.29l-.68.23-.69.26a2.36,2.36,0,0,0-.63.33,4.93,4.93,0,0,1-.55.35l-.73.4c-.25.13-.5.25-.75.35a5.38,5.38,0,0,1-.62.22l-.44.13a1.39,1.39,0,0,1-.46.07c-.38,0-.57-.21-.57-.64a1.13,1.13,0,0,1,.29-.78l.56-.66a3.19,3.19,0,0,0,.5-.66,2.16,2.16,0,0,1,.56-.61,1.64,1.64,0,0,0,.21-.25.48.48,0,0,0,.1-.31c0-.07,0-.11-.07-.13l-.19,0a1.2,1.2,0,0,0-.57.14,2,2,0,0,1-.56.21,1.48,1.48,0,0,0-.51.23,1.64,1.64,0,0,1-.52.24,1.28,1.28,0,0,0-.35.14,2.16,2.16,0,0,1-.34.17l-.33.16a2.52,2.52,0,0,1-.33.14,2.43,2.43,0,0,0-.64.33c-.19.15-.39.29-.59.42a3.52,3.52,0,0,1-.8.4,2.94,2.94,0,0,0-.79.44c-.09.08-.21.16-.35.27l-.47.29a3.67,3.67,0,0,1-.48.25,1.26,1.26,0,0,1-.42.1h-.1l-.1,0a1.55,1.55,0,0,0-.32,0,1.45,1.45,0,0,1-.3,0,.58.58,0,0,1-.59-.6.71.71,0,0,1,.11-.37,2.82,2.82,0,0,1,.27-.4,3.06,3.06,0,0,1,.36-.36l.32-.28a10.46,10.46,0,0,1,.83-.69,6,6,0,0,0,.8-.72l.2-.18.26-.22a1.14,1.14,0,0,0,.22-.22.33.33,0,0,0,.09-.22l0,0-.07,0-.7.35a7.28,7.28,0,0,1-.71.31,5.77,5.77,0,0,0-.93.48,6.48,6.48,0,0,1-.7.42l-.73.35h0a1,1,0,0,0-.4.18.63.63,0,0,1-.41.13q-.18,0-.18-.15s0-.1.14-.17l.32-.19A2.53,2.53,0,0,1,88,64a1.47,1.47,0,0,0,.25-.12,2.88,2.88,0,0,0,.38-.22,2.38,2.38,0,0,1,.39-.25l.34-.22.35-.22c.16-.11.32-.22.48-.31l.49-.26a1.91,1.91,0,0,0,.47-.39,1.52,1.52,0,0,1,.47-.34,4.7,4.7,0,0,0,.58-.3,1.19,1.19,0,0,1,.55-.21.31.31,0,0,1,.13,0l.13,0h.79a.38.38,0,0,1,.27.12,1.23,1.23,0,0,1,.22.27.54.54,0,0,1,.11.32.77.77,0,0,1-.14.38c-.1.16-.21.33-.34.5s-.27.32-.4.47a2.21,2.21,0,0,1-.31.31,1.76,1.76,0,0,0-.37.35,1,1,0,0,1-.42.31,1.13,1.13,0,0,0-.45.29,4.74,4.74,0,0,1-.39.37l-.25.16c-.11.07-.17.14-.17.19s0,.09.07.09a.66.66,0,0,0,.27-.06,2,2,0,0,1,.28-.11,1.56,1.56,0,0,0,.51-.27,1.4,1.4,0,0,1,.5-.26.8.8,0,0,0,.42-.21,1,1,0,0,1,.42-.23,2.25,2.25,0,0,0,.51-.31,1,1,0,0,1,.51-.25,1.32,1.32,0,0,0,.33-.08,1.67,1.67,0,0,0,.28-.18,1.9,1.9,0,0,1,.73-.38.85.85,0,0,0,.35-.16,3.35,3.35,0,0,1,.36-.21l.43-.2.54-.23.55-.21a1.87,1.87,0,0,1,.44-.11,2,2,0,0,0,.39-.13.9.9,0,0,1,.4-.09,1,1,0,0,1,.33.07,2.6,2.6,0,0,1,.44.16,3.28,3.28,0,0,1,.37.22c.11.08.17.16.17.23a.61.61,0,0,1-.2.39,2.76,2.76,0,0,0-.31.36l-.3.44a1,1,0,0,1-.39.36.87.87,0,0,0-.26.23l-.28.36-.29.41a2.36,2.36,0,0,1-.34.36l-.15.13a.41.41,0,0,0-.11.16v.05a0,0,0,0,0,0,0,.8.8,0,0,0,.38-.1,3.32,3.32,0,0,1,.35-.16,6.71,6.71,0,0,1,.67-.27,2.12,2.12,0,0,0,.63-.33,2.11,2.11,0,0,1,.51-.23,2.28,2.28,0,0,0,.51-.21,1.84,1.84,0,0,1,.43-.17A1.17,1.17,0,0,0,102,64a2.67,2.67,0,0,1,.7-.34,2,2,0,0,0,.69-.35,2,2,0,0,1,.59-.25,1.19,1.19,0,0,0,.55-.3c.12-.09.28-.19.48-.31a6.08,6.08,0,0,1,.62-.33,6.92,6.92,0,0,1,.66-.26,1.52,1.52,0,0,1,.54-.11,1.14,1.14,0,0,1,.34.08,4,4,0,0,1,.41.21,1.88,1.88,0,0,1,.34.28.46.46,0,0,1,.14.29.63.63,0,0,1-.13.25c-.09.13-.19.25-.3.38l-.32.38a1.43,1.43,0,0,1-.22.22,1.07,1.07,0,0,0-.35.42,1.54,1.54,0,0,1-.33.44,1.11,1.11,0,0,0-.26.29l-.18.33a2.61,2.61,0,0,1-.22.27.49.49,0,0,0-.14.32.2.2,0,0,0,.18.22,1.26,1.26,0,0,0,.29,0,1.8,1.8,0,0,0,.6-.1,1.81,1.81,0,0,1,.61-.1,1.19,1.19,0,0,0,.51-.1,4.89,4.89,0,0,1,.46-.19,3.8,3.8,0,0,1,.51-.15,2.3,2.3,0,0,0,.5-.18l.71-.31c.38-.16.79-.33,1.22-.53l1.17-.5.54-.22c.08,0,.11,0,.11.15"/><path class="cls-1" d="M122.43,64c0,.08-.06.14-.17.19l-.25.12a9.88,9.88,0,0,0-.94.41c-.3.15-.6.29-.91.41a9,9,0,0,0-.94.44,4,4,0,0,1-1,.37,5.33,5.33,0,0,0-1.2.5,3.67,3.67,0,0,1-1.23.43,3.36,3.36,0,0,0-.5.13,1.61,1.61,0,0,1-.51.09,1.41,1.41,0,0,0-.54.11,1.41,1.41,0,0,1-.54.11,1.86,1.86,0,0,1-.86-.22,1,1,0,0,0-.4-.11,1.69,1.69,0,0,1-.33,0,.74.74,0,0,1-.3-.16,1.39,1.39,0,0,1-.29-.45,1.26,1.26,0,0,1-.11-.53,1.7,1.7,0,0,1,.22-.84,3.28,3.28,0,0,1,.5-.7c.09-.11.25-.26.47-.48s.45-.43.7-.65.49-.42.72-.59a1.62,1.62,0,0,1,.52-.31l.31-.1.28-.12a2.42,2.42,0,0,0,.44-.27,1.18,1.18,0,0,1,.47-.17l.53-.12a1.88,1.88,0,0,1,.52-.08,1.69,1.69,0,0,1,.38.06c.16,0,.24.13.24.25s0,.08-.11.15l-.81.72a8.81,8.81,0,0,1-.84.67,7.85,7.85,0,0,1-.78.49l-.83.44a3.86,3.86,0,0,0-.75.56,2.21,2.21,0,0,0-.51.76l-.09.23a.66.66,0,0,0,0,.23.39.39,0,0,0,.1.29.74.74,0,0,0,.25.17,1.65,1.65,0,0,0,.32.06h.3c.43,0,.79,0,1.09,0a4.28,4.28,0,0,0,1-.27,8,8,0,0,1,1-.28,4.11,4.11,0,0,0,1-.33c.44-.21.88-.4,1.33-.57s.88-.34,1.32-.54a1.63,1.63,0,0,0,.34-.14l.43-.2.42-.16a.93.93,0,0,1,.33-.07l.12,0c.05,0,.08.06.08.1m-1.63-8.16a.17.17,0,0,1-.15.19l-.25,0a2.19,2.19,0,0,1-.68-.11,1.91,1.91,0,0,0-.37-.06l-.43,0-.41,0a.59.59,0,0,1-.29-.12,1.77,1.77,0,0,1-.37-.42,1,1,0,0,1-.18-.53.41.41,0,0,1,.22-.33l.34-.2a.77.77,0,0,1,.34-.13.37.37,0,0,1,.29.21,1.48,1.48,0,0,0,.24.32l.44.46a1.52,1.52,0,0,0,.55.29,2.42,2.42,0,0,1,.44.16.38.38,0,0,1,.27.34"/><path class="cls-1" d="M136.12,53.26a.82.82,0,0,1-.06.35,1.19,1.19,0,0,1-.22.25,1.85,1.85,0,0,0-.51.6,2.76,2.76,0,0,1-.51.64,12.68,12.68,0,0,0-1,1c-.31.33-.63.66-1,1l-1.11,1c-.38.33-.74.67-1.09,1s-.6.54-.9.78l-.93.72c-.37.28-.75.54-1.13.78l-1.17.72c-.32.17-.64.37-1,.58a4.63,4.63,0,0,0-.86.72,3,3,0,0,0-.43.55,2.36,2.36,0,0,1-.45.55l-.24.26a3.18,3.18,0,0,0-.26.35,3.47,3.47,0,0,0-.21.37,1,1,0,0,0-.08.34.38.38,0,0,0,.27.4,1.72,1.72,0,0,0,.52.09,3.73,3.73,0,0,0,.84-.11l.87-.2.8-.19a8.19,8.19,0,0,0,.81-.23c.27-.09.55-.2.85-.33l.48-.22.49-.2.53-.22.73-.32.69-.29a1.58,1.58,0,0,1,.43-.12.08.08,0,0,1,.09.09.24.24,0,0,1-.07.18l-.13.11a2.59,2.59,0,0,1-.67.37l-.72.27-.77.37a7.07,7.07,0,0,1-.79.36,3.83,3.83,0,0,0-.45.18,3.63,3.63,0,0,1-.44.19l-.5.2c-.17.07-.33.14-.49.19l-.58.19-.71.18-.72.15a3.56,3.56,0,0,1-.59.06,4.83,4.83,0,0,1-.8-.06,2.41,2.41,0,0,1-.72-.3c-.17-.1-.33-.19-.5-.27a.47.47,0,0,1-.25-.47,1.35,1.35,0,0,0,0-.29,1.27,1.27,0,0,1,0-.28,1.07,1.07,0,0,1,0-.23c0-.11.06-.24.09-.37s.07-.26.1-.38a2,2,0,0,1,.08-.22,1.21,1.21,0,0,1,.28-.27,2,2,0,0,0,.29-.28c.16-.16.32-.32.45-.48a3.85,3.85,0,0,0,.39-.55,1.28,1.28,0,0,1,.23-.29l.29-.25a3.31,3.31,0,0,0,.27-.26,1,1,0,0,0,.22-.31,2.49,2.49,0,0,1,.35-.47c.14-.15.28-.31.44-.46s.31-.31.47-.46a4.16,4.16,0,0,0,.42-.42c.49-.55,1-1.1,1.47-1.63a18.54,18.54,0,0,1,1.57-1.5c.56-.47,1.1-1,1.63-1.44a10.83,10.83,0,0,1,1.7-1.31l.64-.36q.38-.2.78-.36a8.21,8.21,0,0,1,.78-.29,2.38,2.38,0,0,1,.69-.12,2,2,0,0,1,.7.1c.18.07.27.26.27.58m-1.39,1.06a1.56,1.56,0,0,0,0-.2.29.29,0,0,0-.05-.17l-.12.06-.12.05a1.64,1.64,0,0,0-.57.33,1.59,1.59,0,0,1-.56.33,2.75,2.75,0,0,0-.68.43c-.31.24-.64.51-1,.81s-.68.58-1,.86l-.69.61a11.81,11.81,0,0,0-.94.93,11.81,11.81,0,0,1-.94.93,3.2,3.2,0,0,0-.43.47l-.38.52a2,2,0,0,1-.3.33l-.42.41a4.64,4.64,0,0,0-.37.42.64.64,0,0,0-.15.34s0,.06.07.06a1.27,1.27,0,0,0,.51-.21,6.66,6.66,0,0,0,.73-.49l.73-.56.5-.41a9.68,9.68,0,0,1,1-.81,7.69,7.69,0,0,0,1-.8c.33-.3.66-.58,1-.86a5.71,5.71,0,0,0,.91-.93,2.73,2.73,0,0,1,.5-.46,1.78,1.78,0,0,0,.47-.51,2.55,2.55,0,0,1,.33-.34l.43-.38a3.41,3.41,0,0,0,.38-.38.59.59,0,0,0,.16-.38"/><path class="cls-1" d="M150.37,64a.19.19,0,0,1,0,.07.2.2,0,0,0,0,.08,3.66,3.66,0,0,1-.73.48l-1.33.72c-.48.26-.95.51-1.41.74s-.78.42-1,.55a13.7,13.7,0,0,1-1.26.77l-1.29.71c-.43.23-.86.48-1.28.73s-.82.51-1.22.79-1,.72-1.47,1.09a10.13,10.13,0,0,1-1.53,1,3.33,3.33,0,0,0-.91.68,2.6,2.6,0,0,1-1,.62,3.28,3.28,0,0,0-.85.44l-.82.59c-.27.21-.54.4-.81.59a3.49,3.49,0,0,1-.85.41,3.1,3.1,0,0,0-.79.35c-.19.13-.42.29-.67.48a3.38,3.38,0,0,1-1,.48,5.42,5.42,0,0,0-1,.41,1.32,1.32,0,0,1-.62.17,1.12,1.12,0,0,1-.52-.15.46.46,0,0,1-.27-.42.56.56,0,0,1,.13-.33,3.31,3.31,0,0,1,.31-.36,4,4,0,0,1,.37-.35l.31-.24c.62-.5,1.24-1,1.88-1.49s1.25-1,1.87-1.51c.38-.31.76-.62,1.13-.94s.72-.64,1.05-1,.71-.72,1.1-1.1.79-.77,1.21-1.15.84-.75,1.26-1.1.82-.67,1.2-.95l.52-.39c.24-.2.49-.4.73-.62a7,7,0,0,0,.67-.65c.19-.22.28-.37.28-.48s0-.08-.08-.08a1.72,1.72,0,0,0-.6.16l-.84.37-.84.43-.61.34-1,.47c-.33.15-.66.31-1,.45a2.8,2.8,0,0,1-.7.25l-.73.19c-.21.06-.46.15-.76.26a2.25,2.25,0,0,1-.74.16h-.26l-.37,0-.34,0a.87.87,0,0,1-.22-.08.44.44,0,0,1-.14-.18.48.48,0,0,1,0-.22,1.15,1.15,0,0,1,.27-.75,4,4,0,0,0,.34-.56c.1-.2.2-.39.32-.59a4.74,4.74,0,0,1,.57-.72,2.76,2.76,0,0,0,.51-.78v-.06q0-.09-.15-.09a1.35,1.35,0,0,0-.47.14l-.65.33-.66.37c-.21.12-.39.2-.52.26l-.41.2-.51.27-.52.23a1.38,1.38,0,0,1-.39.1h-.12a.09.09,0,0,1-.08-.1.21.21,0,0,1,.09-.16l.15-.11a3.35,3.35,0,0,1,.66-.32,3,3,0,0,0,.65-.32,19.76,19.76,0,0,1,1.9-1.08,8.24,8.24,0,0,0,1.82-1.21.6.6,0,0,1,.29-.13l.41-.08a3,3,0,0,1,.42,0l.34,0a2.27,2.27,0,0,1,.68.1c.19.07.29.26.29.59a.58.58,0,0,1,0,.21l-.1.18a7.73,7.73,0,0,1-.58.73l-.81,1c-.28.33-.53.65-.74,1a1.42,1.42,0,0,0-.32.72c0,.07.05.11.15.13l.22,0a3.67,3.67,0,0,0,1.39-.35c.55-.24,1.11-.51,1.7-.83l1.74-.92a9.14,9.14,0,0,1,1.53-.66,4,4,0,0,0,.93-.35c.29-.15.58-.28.87-.42a1.06,1.06,0,0,1,.42-.09l.25,0a1.63,1.63,0,0,1,.3.07.86.86,0,0,1,.27.14.22.22,0,0,1,.11.18,1.07,1.07,0,0,1-.46.89,1.85,1.85,0,0,0-.41.37l-.37.42c-.2.22-.41.44-.63.65a6.43,6.43,0,0,1-.71.58A28.18,28.18,0,0,0,140,67.53c-.3.33-.6.64-.91.93a9,9,0,0,1-1,.82l-.35.23a1,1,0,0,0-.27.3.46.46,0,0,0-.11.18.94.94,0,0,1-.06.15.35.35,0,0,1-.1.12l-.19.14a2.79,2.79,0,0,0-.78.66,3.18,3.18,0,0,1-.75.71,5.54,5.54,0,0,0-.77.58c-.23.22-.48.42-.73.63l-.36.3c-.17.14-.25.26-.25.36s0,.07.11.07h0a.94.94,0,0,0,.26-.14l.49-.32.53-.35a1.45,1.45,0,0,1,.4-.2,5.38,5.38,0,0,0,.84-.4q.42-.24.81-.51l.79-.53a7.61,7.61,0,0,1,.82-.48,8.79,8.79,0,0,0,1.09-.7l1-.77c.34-.26.68-.51,1-.75a9,9,0,0,1,1.13-.65c.19-.09.38-.18.56-.28a3.46,3.46,0,0,0,.52-.32l.51-.35a2.2,2.2,0,0,1,.55-.29,1.6,1.6,0,0,0,.45-.23,4.87,4.87,0,0,1,.45-.27,5.76,5.76,0,0,1,.6-.33l.61-.31c.21-.11.42-.22.62-.34a4.31,4.31,0,0,1,.64-.33,4.63,4.63,0,0,0,.42-.22l.58-.32.58-.29a1,1,0,0,1,.38-.13.3.3,0,0,1,.12,0,.08.08,0,0,1,.06.09"/><path class="cls-1" d="M183.05,63.92q0,.15-.3.36a6,6,0,0,1-.72.41,8.23,8.23,0,0,1-.78.33,1.82,1.82,0,0,1-.51.13,1.67,1.67,0,0,0-.55.09,1.71,1.71,0,0,1-.55.09,2.36,2.36,0,0,1-.64-.07,1.63,1.63,0,0,1-.49-.2,3,3,0,0,1-.43-.29c-.14-.11-.3-.24-.5-.37a1.14,1.14,0,0,1-.16-.16.51.51,0,0,1,0-.21.5.5,0,0,0-.11-.28.35.35,0,0,0-.27-.14.68.68,0,0,0-.35.11,2.8,2.8,0,0,0-.35.25l-.36.3a1.06,1.06,0,0,1-.33.22,5.58,5.58,0,0,0-1.14.71,3.22,3.22,0,0,1-.75.42l-.82.3a4.57,4.57,0,0,0-.67.31l-.63.34a3.19,3.19,0,0,1-.66.28,2.77,2.77,0,0,1-.78.11,5,5,0,0,1-1.3-.18,1,1,0,0,1-.47-.31c-.11-.13-.23-.27-.36-.44a.53.53,0,0,1-.14-.28c0-.11,0-.21,0-.31a1,1,0,0,0,0-.26.13.13,0,0,0-.14-.09,1.45,1.45,0,0,0-.33.08l-.49.21-.5.25-.32.18a1.6,1.6,0,0,1-.7.32,1.92,1.92,0,0,0-.75.32,2.56,2.56,0,0,1-.72.27,3.59,3.59,0,0,1-.78.09,2.8,2.8,0,0,1-.48,0,1.83,1.83,0,0,1-.47-.14,1,1,0,0,1-.37-.28.6.6,0,0,1-.16-.44.23.23,0,0,0-.09-.18.31.31,0,0,1-.09-.24.82.82,0,0,1,.21-.47,5.9,5.9,0,0,1,.48-.55c.17-.19.35-.37.53-.54a2.2,2.2,0,0,0,.37-.47l.1-.17.12-.18c.1,0,.16-.08.16-.15s0-.07-.09-.07A.52.52,0,0,0,163,63a1.51,1.51,0,0,1-.34.24c-.15.07-.35.18-.6.32l-.81.44c-.28.15-.54.29-.78.4a1.44,1.44,0,0,1-.54.16h-.11s-.07,0-.07-.1a.2.2,0,0,1,0-.09.72.72,0,0,1,.47-.35,2.13,2.13,0,0,0,.57-.24l.78-.49a8.37,8.37,0,0,0,.79-.53,1.36,1.36,0,0,0,.3-.39A1.15,1.15,0,0,1,163,62a3.22,3.22,0,0,1,.65-.36c.23-.1.46-.18.7-.26a1.17,1.17,0,0,0,.41-.23.68.68,0,0,1,.47-.12.94.94,0,0,1,.56.18.56.56,0,0,1,.26.5,1.43,1.43,0,0,1-.27.74,5.32,5.32,0,0,1-.63.85c-.24.28-.48.55-.74.8l-.59.59a1.3,1.3,0,0,0-.28.41.67.67,0,0,1-.27.34c-.06.06-.09.1-.09.13a.28.28,0,0,0,.09.19.6.6,0,0,0,.15.14.46.46,0,0,0,.26.13H164a2,2,0,0,0,.33-.07l.52-.16.53-.19c.17-.06.29-.11.38-.13a2.61,2.61,0,0,0,.87-.47,2.51,2.51,0,0,1,.88-.44,2.92,2.92,0,0,0,.93-.51c.36-.26.72-.54,1.06-.82l1-.78a1.38,1.38,0,0,1,.63-.34,3.62,3.62,0,0,0,.47,0l.48,0,.36,0a.23.23,0,0,1,.21.26.65.65,0,0,1-.26.47,3.78,3.78,0,0,1-.45.34l-.57.44-.55.47-.44.32a1.25,1.25,0,0,0-.38.38,1.12,1.12,0,0,0-.06.35,1.4,1.4,0,0,0,.21.73.67.67,0,0,0,.62.35,1.29,1.29,0,0,0,.62-.14,6,6,0,0,1,.58-.25,2.42,2.42,0,0,0,.64-.37,2.45,2.45,0,0,1,.63-.36,1.85,1.85,0,0,0,.77-.49,2.55,2.55,0,0,1,.71-.52.89.89,0,0,0,.34-.27c.1-.12.19-.24.28-.37a2.16,2.16,0,0,1,.29-.37,1.31,1.31,0,0,1,.35-.27,1.77,1.77,0,0,0,.32-.21l.29-.23a1.08,1.08,0,0,1,.31-.19.86.86,0,0,1,.36-.08l.27,0,.39.08.36.11a.41.41,0,0,1,.21.16.71.71,0,0,1,.1.37c0,.16,0,.34,0,.52a1.78,1.78,0,0,0,.11.52.52.52,0,0,0,.3.33,4.51,4.51,0,0,1,.58.3,1.09,1.09,0,0,0,.59.16,4.58,4.58,0,0,0,1-.14,4.08,4.08,0,0,0,.93-.34l.19-.1a1.73,1.73,0,0,1,.27-.15l.26-.12a.59.59,0,0,1,.19,0c.05,0,.08,0,.08.11"/><path class="cls-1" d="M192.54,64c0,.08-.06.14-.17.19l-.25.12a9.88,9.88,0,0,0-.94.41c-.3.15-.6.29-.91.41a9,9,0,0,0-.94.44,4,4,0,0,1-1,.37,5.33,5.33,0,0,0-1.2.5,3.67,3.67,0,0,1-1.23.43,3.36,3.36,0,0,0-.5.13,1.61,1.61,0,0,1-.51.09,1.41,1.41,0,0,0-.54.11,1.41,1.41,0,0,1-.54.11,1.86,1.86,0,0,1-.86-.22,1,1,0,0,0-.4-.11,1.69,1.69,0,0,1-.33,0,.74.74,0,0,1-.3-.16,1.39,1.39,0,0,1-.29-.45,1.26,1.26,0,0,1-.11-.53,1.7,1.7,0,0,1,.22-.84,3.28,3.28,0,0,1,.5-.7,6.27,6.27,0,0,1,.47-.48c.22-.21.45-.43.7-.65s.49-.42.72-.59a1.62,1.62,0,0,1,.52-.31l.31-.1.28-.12a2.42,2.42,0,0,0,.44-.27,1.18,1.18,0,0,1,.47-.17l.53-.12a1.88,1.88,0,0,1,.52-.08,1.69,1.69,0,0,1,.38.06c.16,0,.24.13.24.25s0,.08-.11.15l-.81.72a8.81,8.81,0,0,1-.84.67,7,7,0,0,1-.79.49l-.82.44a3.86,3.86,0,0,0-.75.56,2.21,2.21,0,0,0-.51.76l-.09.23a.66.66,0,0,0,0,.23.39.39,0,0,0,.1.29.65.65,0,0,0,.25.17,1.65,1.65,0,0,0,.32.06h.3c.43,0,.79,0,1.09,0a4.28,4.28,0,0,0,1.05-.27,8,8,0,0,1,1-.28,4.11,4.11,0,0,0,1-.33q.66-.32,1.32-.57c.45-.16.89-.34,1.33-.54a1.63,1.63,0,0,0,.34-.14l.43-.2.42-.16a.93.93,0,0,1,.33-.07l.12,0s.08.06.08.1m-1.63-8.16a.17.17,0,0,1-.15.19l-.25,0a2.24,2.24,0,0,1-.69-.11,1.68,1.68,0,0,0-.36-.06l-.43,0-.41,0a.59.59,0,0,1-.29-.12,1.77,1.77,0,0,1-.37-.42,1,1,0,0,1-.19-.53.43.43,0,0,1,.22-.33l.35-.2a.77.77,0,0,1,.34-.13.37.37,0,0,1,.29.21,1.48,1.48,0,0,0,.24.32l.44.46a1.52,1.52,0,0,0,.55.29,2.42,2.42,0,0,1,.44.16.38.38,0,0,1,.27.34"/><path class="cls-1" d="M209.85,63.92a.31.31,0,0,1-.14.24,1.21,1.21,0,0,1-.26.15l-.83.42c-.28.14-.57.26-.86.38l-.66.31a4.3,4.3,0,0,1-.69.26c-.19.06-.37.13-.54.2s-.35.14-.54.2a3.2,3.2,0,0,0-.39.16c-.12.07-.25.13-.38.19a2.77,2.77,0,0,1-.38.11l-.55.13c-.19,0-.37.08-.55.11a2.83,2.83,0,0,1-.4,0l-.15,0a2.53,2.53,0,0,0-.46,0,1.18,1.18,0,0,1-.45-.07.65.65,0,0,1-.36-.41,1.61,1.61,0,0,1-.12-.54,1,1,0,0,1,.27-.71,7.47,7.47,0,0,0,.55-.57l0-.08.06-.08a1.49,1.49,0,0,1,.23-.28l.34-.36a3.13,3.13,0,0,0,.31-.33c.08-.1.13-.17.13-.22s0-.08-.07-.08a1.76,1.76,0,0,0-.39.15l-.76.34-.84.37a5.54,5.54,0,0,1-.61.22,3.13,3.13,0,0,0-.83.33,3.7,3.7,0,0,1-.82.33l-.53.15a2.25,2.25,0,0,0-.51.2,5.79,5.79,0,0,1-.67.31c-.23.09-.46.19-.7.31s-.42.2-.65.33-.45.25-.68.36a5.56,5.56,0,0,1-.71.29,2.25,2.25,0,0,1-.71.12.63.63,0,0,1-.54-.23,1,1,0,0,1-.17-.61.75.75,0,0,1,.12-.41,2.34,2.34,0,0,1,.29-.35l.34-.33a1.81,1.81,0,0,0,.29-.34l.18-.31a1,1,0,0,1,.24-.26,3.22,3.22,0,0,1,.27-.27l.43-.43c.15-.15.28-.3.4-.43a.57.57,0,0,0,.17-.26l0,0a.75.75,0,0,0-.48.16,1.82,1.82,0,0,1-.47.22,1.61,1.61,0,0,0-.35.16l-.33.21a1.49,1.49,0,0,1-.46.22,1.3,1.3,0,0,0-.44.22l-.39.23a4.23,4.23,0,0,1-.6.32c-.21.11-.41.2-.59.28a1.29,1.29,0,0,1-.37.12l-.16,0a.12.12,0,0,1-.1-.12s.06-.11.19-.19a4.09,4.09,0,0,1,.43-.25l.47-.25.32-.15c.28-.16.55-.32.81-.49s.53-.32.82-.48a1.8,1.8,0,0,0,.47-.35,1.1,1.1,0,0,1,.5-.3.75.75,0,0,0,.43-.26.55.55,0,0,1,.37-.22.53.53,0,0,0,.32-.18.56.56,0,0,1,.43-.19l.09,0a3.28,3.28,0,0,0,.49.06,2,2,0,0,1,.51.07,1,1,0,0,1,.39.23.73.73,0,0,1,.15.5.8.8,0,0,1-.2.51,4.06,4.06,0,0,1-.46.47c-.18.16-.36.3-.54.44a1.63,1.63,0,0,0-.41.43,4.32,4.32,0,0,0-.31.48,1.42,1.42,0,0,1-.37.41,3.24,3.24,0,0,0-.28.22.36.36,0,0,0-.17.28c0,.08.05.11.14.11a1.11,1.11,0,0,0,.42-.15,2.27,2.27,0,0,1,.46-.2c.2-.06.4-.12.58-.19a2.27,2.27,0,0,0,.54-.27,4.22,4.22,0,0,1,1.29-.5,4.28,4.28,0,0,0,1.32-.52c.17-.12.38-.24.61-.37a2.76,2.76,0,0,1,.67-.27,1.83,1.83,0,0,0,.69-.33,2,2,0,0,1,.69-.35,2.89,2.89,0,0,0,.72-.33,1.38,1.38,0,0,1,.74-.22,2.11,2.11,0,0,1,.34,0A4.34,4.34,0,0,1,205,62a2.26,2.26,0,0,1,.4.25.41.41,0,0,1,.18.31.66.66,0,0,1-.11.29,3.49,3.49,0,0,1-.26.35c-.11.12-.21.23-.32.33a2.78,2.78,0,0,1-.26.22,1.82,1.82,0,0,0-.29.22,1.74,1.74,0,0,0-.18.22l-.17.23a1.69,1.69,0,0,1-.22.26,4.09,4.09,0,0,1-.38.33,1.16,1.16,0,0,0-.33.37.86.86,0,0,1-.13.25.43.43,0,0,0-.09.26.19.19,0,0,0,.17.21l.32,0a2.43,2.43,0,0,0,.82-.13,6.07,6.07,0,0,1,.79-.22,2.56,2.56,0,0,0,.64-.22,2.88,2.88,0,0,1,.66-.24,2.1,2.1,0,0,0,.55-.21,3.73,3.73,0,0,1,.53-.26,5.3,5.3,0,0,0,.53-.23l.74-.33.72-.3a1.78,1.78,0,0,1,.44-.13h.09a.05.05,0,0,1,0,.06"/><path class="cls-1" d="M218.83,64a.13.13,0,0,1-.06.11l-.1.09a3.23,3.23,0,0,1-1.07.57,5.5,5.5,0,0,0-1.13.51,6.28,6.28,0,0,1-1.17.55l-1.26.42a2.29,2.29,0,0,0-.46.17,3.27,3.27,0,0,1-.47.18,2.83,2.83,0,0,0-.71.24,1.7,1.7,0,0,1-.74.16h-.22a1.13,1.13,0,0,0-.36.06,1.34,1.34,0,0,1-.35,0,1.82,1.82,0,0,1-.7-.14,3.29,3.29,0,0,0-.69-.23l-.45-.06a.88.88,0,0,1-.43-.16l-.3-.23a3.05,3.05,0,0,1-.36-.29,2.29,2.29,0,0,1-.3-.34.61.61,0,0,1-.12-.33.69.69,0,0,1,.14-.43c.1-.11.19-.23.28-.35a.85.85,0,0,0,.12-.23c0-.06,0-.13.07-.2a1,1,0,0,1,.08-.18,1.32,1.32,0,0,1,.21-.23,5.13,5.13,0,0,0,.53-.51,4.34,4.34,0,0,1,.53-.52l.67-.55a4.08,4.08,0,0,1,.55-.37,4.72,4.72,0,0,1,.59-.26l.82-.28c.2-.07.46-.14.76-.22a3.46,3.46,0,0,1,.76-.11h.22a1.1,1.1,0,0,0,.26,0l.27,0a.87.87,0,0,1,.42.1.38.38,0,0,1,.2.37.85.85,0,0,1-.15.51,3.26,3.26,0,0,1-.34.44.7.7,0,0,1-.25.13,1,1,0,0,0-.3.15,4.21,4.21,0,0,1-.42.28,2.17,2.17,0,0,1-.46.17,1.85,1.85,0,0,0-.55.25,2.69,2.69,0,0,1-.53.28l-.51.21c-.16.07-.32.14-.49.23a2.16,2.16,0,0,0-.68.5,1.41,1.41,0,0,0-.18.83.86.86,0,0,0,.41.77,1.69,1.69,0,0,0,.87.25,3.94,3.94,0,0,0,1-.1c.28-.07.59-.13.94-.19a4.56,4.56,0,0,0,1.26-.42,6.16,6.16,0,0,1,.74-.28,4.81,4.81,0,0,0,.71-.29l.57-.25.89-.4c.31-.14.59-.26.85-.36a1.84,1.84,0,0,1,.47-.16c.09,0,.14,0,.14.11m-5.58-1.65c0-.05,0-.09-.11-.12a.46.46,0,0,0-.16-.06.57.57,0,0,0-.31.1l-.28.17a1.21,1.21,0,0,1-.42.16.68.68,0,0,0-.4.21,1.22,1.22,0,0,1-.34.22.64.64,0,0,0-.28.24.46.46,0,0,1-.17.17c-.09.05-.14.11-.14.16l0,0,.23-.08.41-.18.42-.19A2.72,2.72,0,0,0,212,63l.43-.2a.93.93,0,0,0,.36-.28.47.47,0,0,1,.2-.12l.22-.08Z"/><path class="cls-1" d="M229.88,64c0,.05,0,.1-.1.16a2.5,2.5,0,0,1-.24.16l-.26.14-.2.09c-.23.11-.47.2-.69.29a4.73,4.73,0,0,0-.68.33,2.71,2.71,0,0,1-.78.35,3.8,3.8,0,0,0-.78.33c-.21.12-.4.23-.59.32a5.1,5.1,0,0,1-.58.26,8.16,8.16,0,0,0-1.35.6,3.52,3.52,0,0,1-1.39.46l-.5,0a1.53,1.53,0,0,0-.49.1.59.59,0,0,1-.22.05l-.22,0a1.74,1.74,0,0,1-.85-.24.75.75,0,0,1-.43-.71.79.79,0,0,1,.16-.5,2.66,2.66,0,0,1,.36-.4l.44-.35a1.94,1.94,0,0,0,.39-.36,1.39,1.39,0,0,1,.46-.45,5.83,5.83,0,0,0,.53-.37,1.47,1.47,0,0,0,.31-.3l.28-.32a1.78,1.78,0,0,0,.27-.22.71.71,0,0,0,.13-.12.25.25,0,0,0,.07-.19.71.71,0,0,1,0-.15.66.66,0,0,0,0-.15.3.3,0,0,0-.11-.23.91.91,0,0,0-.27-.18,1.15,1.15,0,0,0-.31-.11l-.28,0a.72.72,0,0,0-.33.07,2.59,2.59,0,0,0-.31.19l-.87.57a4.09,4.09,0,0,1-.89.47,2,2,0,0,0-.36.17l-.35.22a3.84,3.84,0,0,1-.34.19l-.49.24-.49.21a1.36,1.36,0,0,1-.33.09.35.35,0,0,1-.14,0,.12.12,0,0,1-.06-.12s0-.1.16-.17l.38-.21L218,64l.26-.14c.18-.12.35-.23.53-.33s.35-.21.53-.33a2.14,2.14,0,0,0,.42-.37,1.63,1.63,0,0,1,.42-.36,2,2,0,0,0,.46-.52,1.17,1.17,0,0,0,.22-.63,1,1,0,0,0,0-.31.91.91,0,0,1-.05-.31.71.71,0,0,1,.66-.77,2.83,2.83,0,0,0,.59-.15,1.55,1.55,0,0,1,.56-.11.47.47,0,0,1,.39.2.73.73,0,0,1,.14.42.56.56,0,0,1-.11.35,1.25,1.25,0,0,1-.23.23l-.23.2a.31.31,0,0,0-.11.25.27.27,0,0,0,.08.22l.15.08.25.1.25.09.17,0a1.63,1.63,0,0,1,.64.37.85.85,0,0,1,.26.67,1.45,1.45,0,0,1-.14.64,2.61,2.61,0,0,1-.36.57,4.62,4.62,0,0,1-.49.5c-.17.15-.34.3-.48.45a2.35,2.35,0,0,0-.44.46,1.76,1.76,0,0,1-.32.39l-.37.34-.1.09a.14.14,0,0,0,0,.09c0,.1.06.16.2.17l.31,0a4.46,4.46,0,0,0,.65-.06l.78-.15c.26-.07.52-.14.76-.22s.45-.16.63-.24l.21-.08.21-.09.2-.06a.54.54,0,0,0,.19,0c.34-.15.67-.31,1-.49a7.28,7.28,0,0,1,1-.44,3,3,0,0,0,.45-.15l.45-.2.27-.13.37-.18.37-.15a.61.61,0,0,1,.23-.07l.11,0a.12.12,0,0,1,.07.1"/><path class="cls-1" d="M249,64a.1.1,0,0,1,0,.07.59.59,0,0,0,0,.08,3.36,3.36,0,0,1-.73.48l-1.32.72-1.41.74c-.46.24-.78.42-1,.55-.41.28-.83.54-1.25.77l-1.29.71c-.44.23-.86.48-1.28.73s-.83.51-1.23.79-1,.72-1.46,1.09a11.24,11.24,0,0,1-1.53,1,3.38,3.38,0,0,0-.92.68,2.45,2.45,0,0,1-1,.62,3.44,3.44,0,0,0-.85.44l-.81.59-.82.59a3.32,3.32,0,0,1-.85.41,3.18,3.18,0,0,0-.78.35c-.2.13-.43.29-.68.48a3.26,3.26,0,0,1-1,.48,5.42,5.42,0,0,0-1,.41,1.32,1.32,0,0,1-.62.17,1.06,1.06,0,0,1-.51-.15.46.46,0,0,1-.28-.42.56.56,0,0,1,.13-.33,3.31,3.31,0,0,1,.31-.36,3.15,3.15,0,0,1,.38-.35l.31-.24c.61-.5,1.24-1,1.87-1.49s1.26-1,1.87-1.51c.39-.31.76-.62,1.13-.94s.72-.64,1.06-1,.7-.72,1.09-1.1.79-.77,1.21-1.15.84-.75,1.26-1.1.82-.67,1.2-.95c.1-.07.28-.2.52-.39s.49-.4.74-.62a8.17,8.17,0,0,0,.66-.65c.19-.22.29-.37.29-.48s0-.08-.09-.08a1.77,1.77,0,0,0-.6.16l-.84.37c-.29.14-.57.29-.83.43l-.62.34-1,.47c-.32.15-.65.31-1,.45a2.87,2.87,0,0,1-.71.25l-.73.19-.76.26a2.25,2.25,0,0,1-.74.16h-.26l-.36,0-.35,0a1,1,0,0,1-.22-.08.44.44,0,0,1-.14-.18.69.69,0,0,1,0-.22,1.14,1.14,0,0,1,.26-.75,3.22,3.22,0,0,0,.34-.56c.1-.2.2-.39.32-.59a4.26,4.26,0,0,1,.58-.72,2.72,2.72,0,0,0,.5-.78v-.06q0-.09-.15-.09a1.41,1.41,0,0,0-.47.14l-.64.33-.67.37a5,5,0,0,1-.52.26l-.4.2-.52.27-.52.23a1.42,1.42,0,0,1-.38.1h-.13c-.05,0-.07,0-.07-.1a.23.23,0,0,1,.08-.16l.16-.11a3,3,0,0,1,.65-.32,2.8,2.8,0,0,0,.65-.32,19.92,19.92,0,0,1,1.91-1.08A8.73,8.73,0,0,0,234,61.25a.56.56,0,0,1,.28-.13l.41-.08a3,3,0,0,1,.42,0l.34,0a2.29,2.29,0,0,1,.69.1c.19.07.28.26.28.59a.58.58,0,0,1,0,.21.85.85,0,0,1-.1.18,9.21,9.21,0,0,1-.57.73l-.82,1c-.28.33-.52.65-.74,1a1.42,1.42,0,0,0-.32.72c0,.07.05.11.16.13l.22,0a3.76,3.76,0,0,0,1.39-.35c.54-.24,1.11-.51,1.69-.83l1.75-.92a8.74,8.74,0,0,1,1.52-.66,4.05,4.05,0,0,0,.94-.35c.28-.15.57-.28.87-.42a1,1,0,0,1,.42-.09l.24,0a1.73,1.73,0,0,1,.31.07.92.92,0,0,1,.26.14.2.2,0,0,1,.11.18,1.07,1.07,0,0,1-.46.89,2.11,2.11,0,0,0-.41.37l-.36.42c-.21.22-.42.44-.64.65a5.62,5.62,0,0,1-.71.58,28.18,28.18,0,0,0-2.51,2.25c-.3.33-.6.64-.91.93a8.2,8.2,0,0,1-1,.82,4,4,0,0,0-.34.23,1.15,1.15,0,0,0-.28.3A.62.62,0,0,0,236,70a.88.88,0,0,1-.05.15l-.1.12-.2.14a2.61,2.61,0,0,0-.77.66,3.62,3.62,0,0,1-.75.71,5,5,0,0,0-.77.58c-.24.22-.48.42-.73.63l-.37.3c-.17.14-.25.26-.25.36s0,.07.11.07h0a1.09,1.09,0,0,0,.27-.14l.48-.32.53-.35a1.6,1.6,0,0,1,.4-.2,5.48,5.48,0,0,0,.85-.4c.27-.16.54-.33.8-.51l.8-.53a6.63,6.63,0,0,1,.81-.48,8.11,8.11,0,0,0,1.09-.7l1-.77c.34-.26.68-.51,1-.75a8.19,8.19,0,0,1,1.12-.65c.19-.09.38-.18.56-.28a3,3,0,0,0,.52-.32c.18-.11.35-.23.51-.35a2.2,2.2,0,0,1,.55-.29,1.6,1.6,0,0,0,.45-.23,4.87,4.87,0,0,1,.45-.27c.2-.12.39-.23.6-.33l.62-.31.61-.34a4.31,4.31,0,0,1,.64-.33,4.63,4.63,0,0,0,.42-.22l.59-.32.57-.29a1,1,0,0,1,.39-.13.26.26,0,0,1,.11,0A.08.08,0,0,1,249,64"/><path class="cls-1" d="M18.1,17.89c3.72.28,6.48,1.2,8.29,2.78a7.55,7.55,0,0,1,2.7,5.92,8.15,8.15,0,0,1-1.83,5.33,8.45,8.45,0,0,1-4.7,2.92,34.1,34.1,0,0,1-7.68.69H2V34.42H3.28a5.63,5.63,0,0,0,2.92-.53,2.45,2.45,0,0,0,1-1.66A35.92,35.92,0,0,0,7.44,27V11.05a35,35,0,0,0-.23-5.14,2.25,2.25,0,0,0-1-1.6A7.6,7.6,0,0,0,3,3.88H2.39V2.77l5.39-.15,6.14-.19q13.44,0,13.43,7.73A6.34,6.34,0,0,1,25,15.28a13.79,13.79,0,0,1-6.94,2.61m-5.92-.46,1,0q5.22,0,7.13-1.64t1.91-5.32a8.5,8.5,0,0,0-.75-4,5.08,5.08,0,0,0-2.25-2.17,12.17,12.17,0,0,0-5.12-.76c-.63,0-1.27,0-1.93.07Zm0,1.19v7.29a58.11,58.11,0,0,0,.17,5.93,3,3,0,0,0,.9,1.91,4.63,4.63,0,0,0,2.91.65c2.58,0,4.52-.66,5.8-2s1.94-3.31,1.94-6-.73-4.7-2.19-6-4-1.92-7.7-1.92c-.58,0-1.19,0-1.83.05"/><path class="cls-1" d="M14.88,35.77H1.79V34.18H3.28a5.52,5.52,0,0,0,2.79-.49A2.15,2.15,0,0,0,7,32.19,37.62,37.62,0,0,0,7.2,27V11.05A35,35,0,0,0,7,6a2,2,0,0,0-.86-1.43A6.81,6.81,0,0,0,3,4.11H2.15V2.53l5.62-.15,6.14-.19c9.08,0,13.68,2.68,13.68,8a6.6,6.6,0,0,1-2.39,5.3,12.49,12.49,0,0,1-5.43,2.37,12.81,12.81,0,0,1,6.77,2.66,7.81,7.81,0,0,1,2.79,6.1,8.43,8.43,0,0,1-1.89,5.48,8.72,8.72,0,0,1-4.83,3,34.56,34.56,0,0,1-7.73.7M2.26,35.29H14.88a34.28,34.28,0,0,0,7.62-.67,8.32,8.32,0,0,0,4.57-2.85,7.9,7.9,0,0,0,1.79-5.18,7.36,7.36,0,0,0-2.63-5.74c-1.76-1.54-4.5-2.45-8.15-2.72L15.93,18l2.13-.31a13.65,13.65,0,0,0,6.83-2.56,6.12,6.12,0,0,0,2.23-4.94c0-5-4.44-7.5-13.2-7.5L2.63,3v.64H3a7.46,7.46,0,0,1,3.34.47A2.43,2.43,0,0,1,7.44,5.86a34.05,34.05,0,0,1,.24,5.19V27a36.12,36.12,0,0,1-.23,5.28,2.64,2.64,0,0,1-1.12,1.81,5.88,5.88,0,0,1-3.05.57h-1Zm13.9-.66a4.75,4.75,0,0,1-3.07-.71,3.21,3.21,0,0,1-1-2.05c-.11-.86-.17-2.81-.17-5.95V18.39h.22c.66,0,1.28-.05,1.85-.05,3.72,0,6.36.67,7.86,2s2.26,3.4,2.26,6.16-.67,4.75-2,6.11-3.33,2.05-6,2.05M12.41,18.84v7.08c0,3.08.06,5.06.17,5.88a2.74,2.74,0,0,0,.83,1.77,4.45,4.45,0,0,0,2.75.59c2.5,0,4.4-.64,5.63-1.91s1.87-3.21,1.87-5.78-.71-4.57-2.11-5.8S17.61,18.81,14,18.81l-1.6,0m.78-1.14-1,0h-.23V3.46h.22c.67-.05,1.33-.08,1.95-.08a12.31,12.31,0,0,1,5.23.79,5.36,5.36,0,0,1,2.35,2.26,8.91,8.91,0,0,1,.78,4.08c0,2.51-.67,4.36-2,5.49s-3.76,1.71-7.28,1.71m-.78-.49h.78c3.41,0,5.75-.53,7-1.58S22,12.86,22,10.5a8.32,8.32,0,0,0-.72-3.85,4.87,4.87,0,0,0-2.14-2.07,12.3,12.3,0,0,0-5-.73c-.54,0-1.11,0-1.7,0Z"/><path class="cls-1" d="M68,25.34h1.16l-.7,10.19H41.32V34.42H42c1.63,0,2.68-.22,3.16-.65a3,3,0,0,0,.91-1.66A40.27,40.27,0,0,0,46.25,27V10.93A35.76,35.76,0,0,0,46,6a2.27,2.27,0,0,0-.94-1.65A6.57,6.57,0,0,0,42,3.88V2.77H65.41l.78,8.16H65.05a12.91,12.91,0,0,0-1.9-4.87,4.79,4.79,0,0,0-2.67-1.81,23.49,23.49,0,0,0-5-.37H51V17.63h3.48a9.54,9.54,0,0,0,3.35-.41A2.17,2.17,0,0,0,59,16a11.24,11.24,0,0,0,.31-3.25h1.13V23.93H59.35a9.68,9.68,0,0,0-.46-3.66,2.26,2.26,0,0,0-1.34-1.21,11.5,11.5,0,0,0-3-.27H51v7.75c0,3.89.25,6.17.75,6.86s1.84,1,4,1h2.44a11.67,11.67,0,0,0,4.25-.66A7.75,7.75,0,0,0,65.62,31,16.16,16.16,0,0,0,68,25.34"/><path class="cls-1" d="M68.68,35.77H41.08V34.18H42c1.94,0,2.69-.32,3-.58a2.72,2.72,0,0,0,.83-1.53A37.77,37.77,0,0,0,46,27V10.93A37.39,37.39,0,0,0,45.81,6,2.08,2.08,0,0,0,45,4.55a6,6,0,0,0-3-.44h-.24V2.53H65.63l.81,8.64H64.86l0-.18A12.69,12.69,0,0,0,63,6.21a4.66,4.66,0,0,0-2.54-1.73,23.69,23.69,0,0,0-4.93-.37H51.2V17.39h3.24A9.27,9.27,0,0,0,57.69,17a1.9,1.9,0,0,0,1.13-1.11,11.22,11.22,0,0,0,.29-3.17v-.24h1.61V24.17H59.11v-.24a9.63,9.63,0,0,0-.43-3.55,2,2,0,0,0-1.21-1.09A10.7,10.7,0,0,0,54.56,19H51.2v7.52c0,4.76.38,6.28.7,6.71s1.23.93,3.85.93h2.44a11.44,11.44,0,0,0,4.16-.64,7.56,7.56,0,0,0,3.08-2.65,15.89,15.89,0,0,0,2.34-5.61l0-.18h1.6ZM41.56,35.3H68.24l.66-9.73h-.72a16.15,16.15,0,0,1-2.37,5.6A8,8,0,0,1,62.53,34a12,12,0,0,1-4.34.68H55.75c-2.3,0-3.68-.37-4.23-1.13s-.8-3-.8-7v-8h3.84a11.32,11.32,0,0,1,3.06.29,2.44,2.44,0,0,1,1.48,1.33,9.05,9.05,0,0,1,.48,3.53h.67V13h-.67a10.77,10.77,0,0,1-.31,3.09,2.39,2.39,0,0,1-1.39,1.38,9.51,9.51,0,0,1-3.44.43H50.72V3.64H55.5a24.05,24.05,0,0,1,5,.38,5,5,0,0,1,2.8,1.9,12.7,12.7,0,0,1,1.9,4.78h.68L65.2,3h-23v.64a6.28,6.28,0,0,1,3,.51A2.58,2.58,0,0,1,46.28,6a36.28,36.28,0,0,1,.21,5V27a38.77,38.77,0,0,1-.2,5.16,3.18,3.18,0,0,1-1,1.78c-.53.48-1.61.72-3.31.72h-.44Z"/><path class="cls-1" d="M109.52,36.28,86.34,5.57V28.31A15.26,15.26,0,0,0,86.62,32a3.15,3.15,0,0,0,1.58,1.64,8.07,8.07,0,0,0,3.92.75v1.11H79.89V34.42a8.8,8.8,0,0,0,3.58-.86,2.78,2.78,0,0,0,1.46-1.48,18.4,18.4,0,0,0,.23-3.77V10.93a23.49,23.49,0,0,0-.35-5A2.41,2.41,0,0,0,83.7,4.24a9.85,9.85,0,0,0-3.4-.36V2.77H90l19.4,25.63V8.81a7.27,7.27,0,0,0-.45-3.05,3.06,3.06,0,0,0-1.82-1.37,9.56,9.56,0,0,0-3.31-.51V2.77h11.89V3.88a8.8,8.8,0,0,0-3.28.79,3,3,0,0,0-1.52,1.51,9.57,9.57,0,0,0-.32,3V36.28Z"/><path class="cls-1" d="M110.79,36.52H109.4L86.58,6.27v22A15.27,15.27,0,0,0,86.85,32a3,3,0,0,0,1.47,1.51,8,8,0,0,0,3.8.72h.23v1.58H79.65V34.2h.22a8.55,8.55,0,0,0,3.48-.83A2.59,2.59,0,0,0,84.7,32a17.9,17.9,0,0,0,.22-3.7V10.93a22.85,22.85,0,0,0-.34-5,2.22,2.22,0,0,0-1-1.5,9.93,9.93,0,0,0-3.3-.34h-.23V2.53h10l.08.09,19,25.08V8.81a7.07,7.07,0,0,0-.43-2.94A2.87,2.87,0,0,0,107,4.61a9.37,9.37,0,0,0-3.23-.5h-.24V2.53h12.36V4.09l-.21,0a8.56,8.56,0,0,0-3.19.77,2.79,2.79,0,0,0-1.41,1.39,9.56,9.56,0,0,0-.31,2.9ZM109.63,36h.69V9.17a9.67,9.67,0,0,1,.34-3.07,3.21,3.21,0,0,1,1.63-1.63,8.73,8.73,0,0,1,3.15-.81V3H104v.64a9.76,9.76,0,0,1,3.16.52,3.35,3.35,0,0,1,1.95,1.5,7.35,7.35,0,0,1,.48,3.15v20.3L89.85,3H80.54v.64A9,9,0,0,1,83.8,4,2.61,2.61,0,0,1,85,5.82a23.3,23.3,0,0,1,.35,5.11V28.31a18.31,18.31,0,0,1-.23,3.83,3,3,0,0,1-1.58,1.63,8.64,8.64,0,0,1-3.45.87v.66H91.88v-.64a8.13,8.13,0,0,1-3.79-.78,3.37,3.37,0,0,1-1.7-1.78,15.8,15.8,0,0,1-.28-3.79V4.86Z"/><path class="cls-1" d="M166.9,3.88V2.77h15V3.88h-.7a7.89,7.89,0,0,0-3.17.4,2.09,2.09,0,0,0-1,1.48,30.45,30.45,0,0,0-.26,5.17V27a43.67,43.67,0,0,0,.18,5.07,2.63,2.63,0,0,0,1,1.77,5.44,5.44,0,0,0,3,.58h1v1.11h-15V34.42h1a5.62,5.62,0,0,0,2.91-.53,2.46,2.46,0,0,0,1-1.66A37.51,37.51,0,0,0,172,27V10.93a35.81,35.81,0,0,0-.22-5,2.19,2.19,0,0,0-1-1.57,7.66,7.66,0,0,0-3.24-.43Z"/><path class="cls-1" d="M182.12,35.77H166.67V34.18h1.2a5.45,5.45,0,0,0,2.78-.49,2.19,2.19,0,0,0,.93-1.5,37.62,37.62,0,0,0,.21-5.19V10.93a35.5,35.5,0,0,0-.21-5,1.93,1.93,0,0,0-.86-1.41,7.45,7.45,0,0,0-3.12-.41h-.93V2.53h15.45V4.11h-.94a7.73,7.73,0,0,0-3.05.38,1.83,1.83,0,0,0-.88,1.33,30,30,0,0,0-.25,5.11V27a42.82,42.82,0,0,0,.18,5,2.29,2.29,0,0,0,.87,1.62,5.26,5.26,0,0,0,2.87.53h1.2Zm-15-.47h14.51v-.64h-.73a5.58,5.58,0,0,1-3.15-.63,2.81,2.81,0,0,1-1.06-1.93,44,44,0,0,1-.18-5.1V10.93a29.93,29.93,0,0,1,.26-5.22,2.31,2.31,0,0,1,1.12-1.64,8,8,0,0,1,3.27-.43h.47V3H167.14v.64h.46a7.6,7.6,0,0,1,3.36.47A2.38,2.38,0,0,1,172,5.84a34.75,34.75,0,0,1,.22,5.09V27a36.69,36.69,0,0,1-.22,5.28,2.71,2.71,0,0,1-1.13,1.81,5.84,5.84,0,0,1-3,.57h-.73Z"/><path class="cls-1" d="M211.31,21.54h14.14V22.7a7.27,7.27,0,0,0-3.18.47,2.37,2.37,0,0,0-1.1,1.57,31.66,31.66,0,0,0-.27,5.33v3.48a6.73,6.73,0,0,0-1-.09A14.59,14.59,0,0,0,215,34.59a21.79,21.79,0,0,1-7.62,1.55A15.9,15.9,0,0,1,191,19.78a18.57,18.57,0,0,1,4.45-12.33q4.44-5.28,12.08-5.29A14,14,0,0,1,218.42,7a11.3,11.3,0,0,0,1-3.64h1.16V14.29h-1.16a13.08,13.08,0,0,0-3.83-8A10.7,10.7,0,0,0,208,3.35,11,11,0,0,0,200,6.78c-2.28,2.28-3.43,6.35-3.43,12.18s1.11,9.93,3.31,12.36A10.68,10.68,0,0,0,208.05,35a10.16,10.16,0,0,0,4.57-1,6,6,0,0,0,2.8-2.5,8.23,8.23,0,0,0,.75-3.73,11.39,11.39,0,0,0-.35-3.51A2,2,0,0,0,214.74,23a7.88,7.88,0,0,0-2.65-.3h-.78Z"/><path class="cls-1" d="M207.37,36.37a16.11,16.11,0,0,1-16.59-16.59,18.88,18.88,0,0,1,4.5-12.48,15.26,15.26,0,0,1,12.26-5.37,14.21,14.21,0,0,1,10.81,4.64,11.61,11.61,0,0,0,.85-3.25l0-.21h1.61V14.53h-1.6l0-.2a12.85,12.85,0,0,0-3.76-7.86A10.48,10.48,0,0,0,208,3.58a10.83,10.83,0,0,0-7.88,3.36c-2.23,2.23-3.36,6.28-3.36,12s1.09,9.83,3.25,12.2a10.47,10.47,0,0,0,8,3.55,9.94,9.94,0,0,0,4.46-1,5.87,5.87,0,0,0,2.7-2.4,8,8,0,0,0,.72-3.62,11.33,11.33,0,0,0-.33-3.43,1.81,1.81,0,0,0-.95-1.05,7.69,7.69,0,0,0-2.57-.28h-1V21.3h14.62v1.64h-.24a7.09,7.09,0,0,0-3.06.44,2.1,2.1,0,0,0-1,1.42,31.19,31.19,0,0,0-.26,5.27v3.76l-.27,0a5.53,5.53,0,0,0-1-.1,14.66,14.66,0,0,0-4.8,1.12,22,22,0,0,1-7.7,1.56m.17-34c-5,0-9,1.75-11.9,5.21a18.43,18.43,0,0,0-4.39,12.17A15.65,15.65,0,0,0,207.37,35.9a21.5,21.5,0,0,0,7.53-1.53,15.13,15.13,0,0,1,5-1.15,5.93,5.93,0,0,1,.8.06V30.07a31.13,31.13,0,0,1,.27-5.38A2.53,2.53,0,0,1,222.15,23a6.84,6.84,0,0,1,3.06-.5v-.69H211.55v.68h.53a7.75,7.75,0,0,1,2.75.33A2.22,2.22,0,0,1,216,24.1a11.53,11.53,0,0,1,.37,3.6,8.5,8.5,0,0,1-.78,3.83,6.23,6.23,0,0,1-2.91,2.61,10.34,10.34,0,0,1-4.67,1,10.91,10.91,0,0,1-8.39-3.72c-2.24-2.45-3.38-6.66-3.38-12.51s1.18-10,3.51-12.35A11.29,11.29,0,0,1,208,3.11a10.94,10.94,0,0,1,7.76,3,13.26,13.26,0,0,1,3.88,7.93h.71V3.58h-.71a11.67,11.67,0,0,1-1,3.51l-.15.33-.24-.27a13.78,13.78,0,0,0-10.7-4.75"/><path class="cls-1" d="M259.67,25.34h1.16l-.7,10.19H233V34.42h.68c1.63,0,2.68-.22,3.15-.65a2.94,2.94,0,0,0,.91-1.66,38.33,38.33,0,0,0,.19-5.11V10.93a36.34,36.34,0,0,0-.2-4.93,2.3,2.3,0,0,0-.94-1.65,6.59,6.59,0,0,0-3.11-.47V2.77h23.42l.77,8.16h-1.14a12.76,12.76,0,0,0-1.89-4.87,4.79,4.79,0,0,0-2.67-1.81,23.55,23.55,0,0,0-5-.37h-4.54V17.63h3.48a9.47,9.47,0,0,0,3.34-.41A2.16,2.16,0,0,0,250.72,16a11.35,11.35,0,0,0,.3-3.25h1.14V23.93H251a9.47,9.47,0,0,0-.46-3.66,2.21,2.21,0,0,0-1.34-1.21,11.41,11.41,0,0,0-3-.27h-3.6v7.75c0,3.89.24,6.17.75,6.86s1.84,1,4,1h2.44a11.73,11.73,0,0,0,4.26-.66A7.73,7.73,0,0,0,257.29,31a16,16,0,0,0,2.38-5.69"/><path class="cls-1" d="M260.35,35.77H232.76V34.18h.91c1.94,0,2.7-.32,3-.58a2.67,2.67,0,0,0,.84-1.53,39.57,39.57,0,0,0,.19-5.07V10.93a37.39,37.39,0,0,0-.2-4.89,2.11,2.11,0,0,0-.84-1.49,6.1,6.1,0,0,0-3-.44h-.24V2.53H257.3l.82,8.64h-1.58l-.05-.18a12.45,12.45,0,0,0-1.85-4.78,4.62,4.62,0,0,0-2.54-1.73,23.58,23.58,0,0,0-4.92-.37h-4.31V17.39h3.25a9.31,9.31,0,0,0,3.25-.39,1.9,1.9,0,0,0,1.13-1.11,11.34,11.34,0,0,0,.28-3.17v-.24h1.61V24.17h-1.61v-.24a9.41,9.41,0,0,0-.43-3.55,2,2,0,0,0-1.2-1.09,10.75,10.75,0,0,0-2.91-.27h-3.37v7.52c0,4.76.39,6.28.71,6.71s1.23.93,3.84.93h2.44a11.53,11.53,0,0,0,4.17-.64,7.54,7.54,0,0,0,3.07-2.65,15.89,15.89,0,0,0,2.34-5.61l.05-.18h1.6l0,.25Zm-27.12-.47h26.68l.67-9.73h-.72a16,16,0,0,1-2.38,5.6A7.94,7.94,0,0,1,254.2,34a12,12,0,0,1-4.34.68h-2.44c-2.29,0-3.67-.37-4.23-1.13s-.79-3-.79-7v-8h3.84a11.28,11.28,0,0,1,3,.29,2.42,2.42,0,0,1,1.48,1.33,9,9,0,0,1,.49,3.53h.66V13h-.66a10.66,10.66,0,0,1-.32,3.09,2.37,2.37,0,0,1-1.38,1.38,9.58,9.58,0,0,1-3.44.43H242.4V3.64h4.78a23.94,23.94,0,0,1,5,.38,5,5,0,0,1,2.8,1.9,12.63,12.63,0,0,1,1.9,4.78h.69L256.87,3h-23v.64a6.23,6.23,0,0,1,3,.51A2.54,2.54,0,0,1,238,6a36.17,36.17,0,0,1,.21,5V27a36.61,36.61,0,0,1-.2,5.16,3,3,0,0,1-1,1.78c-.52.48-1.61.72-3.31.72h-.44Z"/><path class="cls-1" d="M304.48,35.53h-8.82q-2.34-1.64-7.18-8.6c-1-1.48-2.1-2.91-3.21-4.26a16.18,16.18,0,0,0-2.3-2.49,3.38,3.38,0,0,0-2-.45h-1.31V27a43.34,43.34,0,0,0,.18,5.06,2.56,2.56,0,0,0,1,1.78,5.41,5.41,0,0,0,3,.58h1.57v1.11H269.76V34.42h1.06a5.62,5.62,0,0,0,2.91-.53,2.46,2.46,0,0,0,1-1.66A38.15,38.15,0,0,0,275,27V10.93a36.4,36.4,0,0,0-.21-5,2.19,2.19,0,0,0-1-1.57,7.66,7.66,0,0,0-3.24-.43H270V2.77l4.68-.25q4.69-.21,7.45-.21a27.52,27.52,0,0,1,7.62.87A10.2,10.2,0,0,1,294.5,6a6.76,6.76,0,0,1,1.81,4.73,7.33,7.33,0,0,1-2.37,5.49,11.81,11.81,0,0,1-7,2.83q2.06,1,6.63,7.15a33.71,33.71,0,0,0,5.84,6.55,8.83,8.83,0,0,0,5,1.64ZM279.71,18.62q1.82,0,3.75-.15a13.84,13.84,0,0,0,3.36-.53,5.67,5.67,0,0,0,2.3-1.27,5.65,5.65,0,0,0,1.39-2.18,9.58,9.58,0,0,0,.51-3.34,8.38,8.38,0,0,0-1.73-5.53q-1.73-2.08-7.52-2.08c-.6,0-1.29,0-2.06.1Z"/><path class="cls-1" d="M304.72,35.77h-9.13l-.07,0c-1.59-1.12-4-4-7.23-8.67-1-1.48-2.11-2.91-3.2-4.25a17.83,17.83,0,0,0-2.25-2.44A3.21,3.21,0,0,0,281,20H280v7a42.82,42.82,0,0,0,.18,5,2.29,2.29,0,0,0,.87,1.62,5.23,5.23,0,0,0,2.87.53h1.81v1.59H269.52V34.18h1.3a5.48,5.48,0,0,0,2.78-.49,2.19,2.19,0,0,0,.93-1.5,37.62,37.62,0,0,0,.21-5.19V10.93a35.5,35.5,0,0,0-.21-5,1.93,1.93,0,0,0-.86-1.41,7.45,7.45,0,0,0-3.12-.41h-.79V2.54l4.91-.25c3.12-.15,5.63-.22,7.46-.22a28,28,0,0,1,7.69.88,10.43,10.43,0,0,1,4.85,2.92,7,7,0,0,1,1.88,4.89,7.6,7.6,0,0,1-2.44,5.66,11.64,11.64,0,0,1-6.43,2.8c1.42,1,3.42,3.24,6.11,6.87a33.47,33.47,0,0,0,5.8,6.5,8.68,8.68,0,0,0,4.9,1.59h.23Zm-9-.47h8.51v-.65A9,9,0,0,1,299.32,33c-1.45-1-3.38-3.21-5.9-6.6-3-4.06-5.21-6.44-6.54-7.08l-.73-.35.81-.1a11.64,11.64,0,0,0,6.82-2.76,7.15,7.15,0,0,0,2.3-5.32,6.58,6.58,0,0,0-1.75-4.57,10.06,10.06,0,0,0-4.64-2.79,27.48,27.48,0,0,0-7.56-.86c-1.83,0-4.33.08-7.43.22L270.23,3v.65h.32a7.6,7.6,0,0,1,3.36.47A2.38,2.38,0,0,1,275,5.84a34.75,34.75,0,0,1,.22,5.09V27a36.69,36.69,0,0,1-.22,5.28,2.69,2.69,0,0,1-1.13,1.81,5.84,5.84,0,0,1-3,.57H270v.64H285.2v-.64h-1.33a5.58,5.58,0,0,1-3.15-.63,2.81,2.81,0,0,1-1.06-1.93,43.13,43.13,0,0,1-.19-5.1V19.49H281a3.68,3.68,0,0,1,2.09.49,16.44,16.44,0,0,1,2.34,2.54c1.1,1.34,2.19,2.78,3.23,4.27,3.15,4.54,5.52,7.4,7.05,8.51M279.47,18.86V3.42l.22,0c.76-.06,1.46-.1,2.07-.1,4,0,6.5.71,7.71,2.17a8.59,8.59,0,0,1,1.79,5.68,9.75,9.75,0,0,1-.53,3.42,5.91,5.91,0,0,1-1.44,2.27,6,6,0,0,1-2.41,1.33,14.68,14.68,0,0,1-3.41.54c-1.24.06-2.51.11-3.75.14Zm.48-15V18.37c1.16,0,2.34-.07,3.49-.13a13.81,13.81,0,0,0,3.31-.53A5.4,5.4,0,0,0,289,16.5a5.53,5.53,0,0,0,1.33-2.1,9.27,9.27,0,0,0,.49-3.25,8.16,8.16,0,0,0-1.67-5.38c-1.1-1.32-3.57-2-7.35-2-.54,0-1.15,0-1.81.07"/><path class="cls-1" d="M122.66,39.3,146.8,3.88H136.6a22,22,0,0,0-4.29.26A5.16,5.16,0,0,0,130,6.06a11.68,11.68,0,0,0-2,4.24H127L128,2.77h24.36V3.88L128.46,39"/><path class="cls-1" d="M122.85,39.43l-.39-.26,23.9-35.06H136.6a21.35,21.35,0,0,0-4.23.26,4.94,4.94,0,0,0-2.18,1.84,11.48,11.48,0,0,0-1.94,4.16l0,.17h-1.52l1.13-8h24.8V4l0,.06L128.65,39.17l-.39-.27L152.15,3.8V3H128.23l-1,7.07h.61a11.7,11.7,0,0,1,2-4.15,5.14,5.14,0,0,1,2.43-2,20.63,20.63,0,0,1,4.35-.28h10.65L147,4Z"/><path class="cls-1" d="M131.07,36.84q.39-.06.84-.09l.82-.06.86,0c.3,0,.59,0,.86,0l.86.06c.3,0,.58.05.85.09L137,37l.79.18.8.2a3,3,0,0,1,.36.13,1.78,1.78,0,0,0,.37.13.48.48,0,0,0,.18.07.48.48,0,0,1,.18.06l.33.13.36.16.32.15.17,0,.16.08.16.08.16.08.12.06.12.06.25.11.48.23c.65.29,1.31.56,2,.79a15,15,0,0,0,2.15.58,16.87,16.87,0,0,0,2.29.27h.57l.61,0,.62,0,.61-.06a14.26,14.26,0,0,0,2.34-.51,21.82,21.82,0,0,0,2.23-.83c.36-.16.7-.33,1-.52a3,3,0,0,0,.51-.25l.48-.29.25-.14a.87.87,0,0,0,.21-.17,1.64,1.64,0,0,0,.22-.14l.23-.16.21-.15a.83.83,0,0,0,.21-.16,1,1,0,0,0,.21-.14l1-.86.12-.08v0a.92.92,0,0,1,.44-.15.86.86,0,0,1,.46.07c.3.14.38.31.24.52l-.13.1-.08.09-1.09,1-.37.36a2.33,2.33,0,0,0-.23.19l-.19.19a.87.87,0,0,1-.21.17,1.16,1.16,0,0,0-.21.16,3.73,3.73,0,0,1-.43.36l-.48.33a5.05,5.05,0,0,1-.5.35l-.5.32a12.43,12.43,0,0,1-2.23,1.17,21.3,21.3,0,0,1-2.68,1l-.74.18-.74.15a13.63,13.63,0,0,1-1.6.26,19.55,19.55,0,0,1-3.36.1c-.3,0-.59,0-.86,0s-.54,0-.81-.09l-.43-.06-.43-.05a2.7,2.7,0,0,0-.41-.08,1.87,1.87,0,0,1-.4-.07c-.55-.11-1.07-.23-1.57-.36s-1-.29-1.44-.46l-.37-.12-.36-.15-.33-.13a.44.44,0,0,0-.16-.06.37.37,0,0,1-.16-.07l-.08,0-.08,0-.12,0-.25-.1-.26-.11-.26-.1-.25-.08-.24-.1-.53-.16-.48-.17c-.17-.06-.34-.12-.53-.17l-.49-.16a3.78,3.78,0,0,1-.49-.19l-.52-.15-.53-.16-1.14-.25a10.86,10.86,0,0,0-1.18-.15,4.42,4.42,0,0,0-.62,0l-.61,0-.61.06h-.33l-.15,0a.39.39,0,0,0-.14,0l-.31,0-.31,0-.61.14c-.22,0-.43.08-.62.13s-.38.1-.57.16a7.37,7.37,0,0,0-.87.26l-.82.31-2.53,1.36a1.28,1.28,0,0,1-1.23,0,.5.5,0,0,1-.31-.35.38.38,0,0,1,.17-.39.42.42,0,0,1,.12-.1l.13-.09.12-.09.13-.08.24-.17a1.32,1.32,0,0,0,.25-.16,8.64,8.64,0,0,1,1.08-.61,23,23,0,0,1,2.32-1.13s-.2.11.37-.13S129.5,37,130.11,37h.08"/><path class="cls-1" d="M146.92,43.13l-1.13,0c-.3,0-.59,0-.87,0l-.83-.09-.42-.06-.43-.06a2.16,2.16,0,0,0-.39-.07,2.23,2.23,0,0,1-.45-.08c-.54-.11-1.08-.23-1.57-.36s-1-.3-1.46-.47a3.22,3.22,0,0,1-.37-.12l-.37-.15-.33-.13-.11,0a.74.74,0,0,1-.22-.08l-.52-.21-.25-.1-.28-.1-.22-.07a1.29,1.29,0,0,1-.26-.12l-.5-.15-.51-.17c-.15-.06-.32-.11-.51-.17l-.49-.16a3.52,3.52,0,0,1-.51-.19l-.51-.15-.52-.15-1.12-.25a8.6,8.6,0,0,0-1.15-.14,4,4,0,0,0-.59,0l-.61,0-.6.06h-.35a.34.34,0,0,1-.16,0l-.07,0-.33,0-.32,0-.59.12-.61.14a5.12,5.12,0,0,0-.56.15c-.32.08-.6.17-.86.26l-.82.31-2.5,1.35a1.47,1.47,0,0,1-1.44,0,.72.72,0,0,1-.45-.53.65.65,0,0,1,.26-.61,1,1,0,0,1,.16-.12l.09-.07.12-.08.16-.11.25-.16a1.43,1.43,0,0,0,.22-.15,9.53,9.53,0,0,1,1.12-.64,22.06,22.06,0,0,1,2.32-1.12h0l.37-.15a50.86,50.86,0,0,1,5.24-1.32h.28c.16,0,.24,0,.27.2l0,.22-.22,0a.85.85,0,0,1-.23,0h-.07c-.63.07-4.6,1.07-5.12,1.28a2.45,2.45,0,0,1-.44.17,22.06,22.06,0,0,0-2.22,1.08,10,10,0,0,0-1.07.61,1.67,1.67,0,0,1-.26.17,1.43,1.43,0,0,0-.22.15l-.11.07a1.11,1.11,0,0,1-.16.11l-.1.08-.1.06c-.13.11-.12.17-.11.2s0,.09.18.17a1,1,0,0,0,1,0L124,40l.86-.32a7.15,7.15,0,0,1,.89-.27,4.91,4.91,0,0,1,.58-.16l.62-.14.94-.17.31,0a.42.42,0,0,1,.18,0h.08l.19,0h.2l.59-.06.63,0,.64,0a8,8,0,0,1,1.2.15c.39.07.77.16,1.15.25l.55.16a5.36,5.36,0,0,0,.52.16l.49.18.49.16a4.27,4.27,0,0,1,.54.18l.47.16.59.19a1.09,1.09,0,0,0,.19.08l.24.07.27.11.28.11.56.22s.06,0,.07,0a.6.6,0,0,1,.25.1l.27.1.38.15.34.11a14.19,14.19,0,0,0,1.44.46c.49.13,1,.25,1.55.36a1.89,1.89,0,0,0,.39.07,2.14,2.14,0,0,1,.44.08l.4,0,.43.06.8.09c.27,0,.55,0,.85,0a20.16,20.16,0,0,0,3.32-.09c.5-.06,1-.14,1.58-.26.25,0,.49-.09.73-.15l.74-.18a20.14,20.14,0,0,0,2.64-1,12.09,12.09,0,0,0,2.2-1.16l.51-.32.48-.33.48-.34a4.35,4.35,0,0,0,.41-.34.94.94,0,0,1,.26-.2l.14-.11a2.13,2.13,0,0,1,.21-.22l.24-.2.36-.34,1.28-1.14v0s0-.05-.17-.11a.47.47,0,0,0-.34,0,.78.78,0,0,0-.23,0h0l-.24.16-1,.83a.56.56,0,0,1-.21.15.88.88,0,0,1-.24.19l-.17.11-.25.19-.21.13a1.55,1.55,0,0,1-.24.19l-.25.14c-.17.09-.32.19-.47.28a3.64,3.64,0,0,1-.56.27,10.78,10.78,0,0,1-1,.52q-1.09.47-2.25.84a15.9,15.9,0,0,1-2.38.52l-.64.06-.61,0-.63,0h-.58a14.44,14.44,0,0,1-2.32-.27,15.93,15.93,0,0,1-2.19-.59,21.37,21.37,0,0,1-2-.8l-.73-.33-.1-.06a.63.63,0,0,1-.17-.08l-.3-.14-.14-.07-.51-.22-.35-.15-.33-.13-.13-.05a.75.75,0,0,1-.24-.08,3.19,3.19,0,0,1-.37-.13,1.52,1.52,0,0,0-.32-.12l-.79-.2-.79-.18-.84-.14c-.26,0-.55-.07-.84-.09l-.85-.05a7.78,7.78,0,0,0-.84,0l-.86,0-.8,0-.84.09L131,36.6l.85-.09c.28,0,.56,0,.84,0l.86,0h.87l.87.06q.45,0,.87.09l.86.15q.42.08.81.18l.8.2a1.86,1.86,0,0,1,.4.15,2.55,2.55,0,0,0,.33.11l.06,0a.16.16,0,0,0,.09,0,.77.77,0,0,1,.28.1l.27.11.39.16.46.2a1,1,0,0,1,.21.1l.3.14.1.06a.63.63,0,0,1,.17.08l.21.09.49.23c.65.29,1.31.56,2,.79a14.93,14.93,0,0,0,2.12.56,13.57,13.57,0,0,0,2.25.27h.55l.61,0,.61,0,.6-.06a13.9,13.9,0,0,0,2.31-.51,20.68,20.68,0,0,0,2.2-.82c.34-.15.68-.32,1-.5s.37-.17.51-.25a5.55,5.55,0,0,1,.48-.29l.25-.14.15-.12.06,0,.21-.13.22-.16a1.52,1.52,0,0,1,.23-.16.61.61,0,0,0,.15-.12l.06-.05a.67.67,0,0,0,.15-.09l1.16-1a1.16,1.16,0,0,1,.55-.19,1,1,0,0,1,.6.09.67.67,0,0,1,.41.42.49.49,0,0,1-.09.44l0,.06-.18.16-1.47,1.33a2.92,2.92,0,0,0-.23.19,1.41,1.41,0,0,0-.17.18,1,1,0,0,1-.27.21l-.15.12a4.11,4.11,0,0,1-.48.39,5.85,5.85,0,0,1-.48.34l-.5.35-.5.32A13.2,13.2,0,0,1,155,41.43a20.67,20.67,0,0,1-2.71,1l-.75.18-.75.16c-.55.12-1.1.2-1.62.26a20.56,20.56,0,0,1-2.26.12"/><path class="cls-2" d="M308.1,32.9a1.85,1.85,0,0,1,.95.25,2,2,0,0,1,.69.7,1.77,1.77,0,0,1,.26.95,1.88,1.88,0,0,1-.25,1,1.92,1.92,0,0,1-3.3,0,1.88,1.88,0,0,1-.25-1,1.85,1.85,0,0,1,.25-.95,1.88,1.88,0,0,1,.7-.7,1.85,1.85,0,0,1,1-.25m0,.31A1.59,1.59,0,0,0,307,35.92a1.56,1.56,0,0,0,1.12.46,1.53,1.53,0,0,0,1.12-.47,1.49,1.49,0,0,0,.46-1.11,1.59,1.59,0,0,0-1.58-1.59m-.43,2.61h-.33v-2h.71a1.66,1.66,0,0,1,.53.06.45.45,0,0,1,.24.19.47.47,0,0,1,.1.3.54.54,0,0,1-.17.39.6.6,0,0,1-.42.18.65.65,0,0,1,.22.16,1.87,1.87,0,0,1,.26.36l.25.4h-.41l-.17-.32a2.29,2.29,0,0,0-.31-.45.44.44,0,0,0-.3-.1h-.2Zm0-1.77v.62h.4a.74.74,0,0,0,.38-.08.26.26,0,0,0,.12-.23.25.25,0,0,0-.12-.24.92.92,0,0,0-.4-.07Z"/></svg>